<?xml version="1.0" encoding="UTF-8"?>
<svg width="188px" height="17px" viewBox="0 0 188 17" version="1.1" xmlns="http://www.w3.org/2000/svg" xmlns:xlink="http://www.w3.org/1999/xlink">
    <!-- Generator: Sketch 49.1 (51147) - http://www.bohemiancoding.com/sketch -->
    <title>logo</title>
    <desc>Created with Sketch.</desc>
    <defs></defs>
    <g id="Page-1" stroke="none" stroke-width="1" fill="none" fill-rule="evenodd">
        <g id="logo" transform="translate(0.000000, -2.000000)">
            <g id="eye" transform="translate(0.314009, 2.303031)" fill-rule="nonzero">
                <polygon id="eye-ball" fill="#D68205" transform="translate(9.740576, 9.086535) rotate(5.000000) translate(-9.740576, -9.086535) " points="15.2155048 4.9640395 15.2155048 13.2090312 4.26564739 13.0651757 5.73569917 11.6516042 13.6201051 11.6659737 13.6547481 6.14287023"></polygon>
                <path d="M1.54945191,16.8360226 C0.977650754,15.0366695 0.992740425,13.821271 1.59472093,13.1898272 C5.03135728,9.58498861 12.2688623,5.62990821 23.307236,1.32458606 C18.3447709,4.24545848 14.5949705,6.60702567 12.0578351,8.40928767 C9.87616961,9.95904043 4.95337939,12.5384054 2.00640088,15.6606461 C1.66819725,16.0189633 1.51588094,16.4107554 1.54945191,16.8360226 Z" id="eye-brow" fill="#FF9800" transform="translate(12.219432, 9.080304) rotate(6.000000) translate(-12.219432, -9.080304) "></path>
            </g>
            <text id="Talon-for-Twitter" font-family="YuKyo-Bold, YuKyokasho" font-size="20" font-weight="bold" fill="#44485C">
                <tspan x="33.24" y="18">Talon for Twitter</tspan>
            </text>
        </g>
    </g>
</svg>