<?xml version="1.0" encoding="UTF-8"?>
<svg width="22px" height="18px" viewBox="0 0 22 18" version="1.1" xmlns="http://www.w3.org/2000/svg" xmlns:xlink="http://www.w3.org/1999/xlink">
    <!-- Generator: Sketch 49.1 (51147) - http://www.bohemiancoding.com/sketch -->
    <title>Shape</title>
    <desc>Created with Sketch.</desc>
    <defs></defs>
    <g id="Page-1" stroke="none" stroke-width="1" fill="none" fill-rule="evenodd">
        <g id="twitter" fill="#FFFFFF" fill-rule="nonzero">
            <path d="M22,2.13072796 C21.19062,2.49219865 20.3206299,2.73639071 19.4077399,2.84624945 C20.3394399,2.28388788 21.05521,1.39338977 21.39225,0.33223409 C20.5200599,0.853066398 19.5541499,1.23114879 18.5259798,1.43491903 C17.7027398,0.551730078 16.5296997,0 15.2314797,0 C12.7388795,0 10.7178714,2.03449082 10.7178714,4.54396564 C10.7178714,4.90012059 10.7577794,5.24697298 10.8347464,5.5795393 C7.08357025,5.39005513 3.75769809,3.58092976 1.53161698,0.831692671 C1.14305296,1.50280553 0.920475646,2.2834449 0.920475646,3.11624502 C0.920475646,4.69280652 1.71728599,6.08364916 2.92845205,6.89850864 C2.18857001,6.87492002 1.49256697,6.67048531 0.884081044,6.33016686 C0.883652044,6.3491042 0.883652044,6.36804154 0.883652044,6.38731112 C0.883652044,8.58894891 2.43950312,10.4254504 4.50424723,10.8430354 C4.12556121,10.9468585 3.72681119,11.0024524 3.31516917,11.0024524 C3.02431815,11.0024524 2.74157414,10.9739024 2.46593612,10.9209 C3.04030115,12.7261271 4.70718624,14.0400133 6.68228033,14.0765258 C5.13756126,15.2954041 3.19141916,16.0218672 1.07671085,16.0218672 C0.712378736,16.0218672 0.353074718,16.000283 2.84217094e-14,15.9583218 C1.9974461,17.247585 4.36997022,18 6.91886835,18 C15.2209208,18 19.760951,11.0758207 19.760951,5.07088891 C19.760951,4.8738741 19.756441,4.67796673 19.747751,4.48305606 C20.6297299,3.84228725 21.39489,3.04204607 22,2.13072796" id="Shape"></path>
        </g>
    </g>
</svg>
